<?xml version="1.0" standalone="no"?><!DOCTYPE svg PUBLIC "-//W3C//DTD SVG 1.1//EN" "http://www.w3.org/Graphics/SVG/1.1/DTD/svg11.dtd"><svg class="icon" width="200px" height="200.00px" viewBox="0 0 1024 1024" version="1.1" xmlns="http://www.w3.org/2000/svg"><path fill="#8a8a8a" d="M153.6 153.6a51.2 51.2 0 1 1 0.0256 102.3744A51.2 51.2 0 0 1 153.6 153.6z m0 307.2a51.2 51.2 0 1 1 0.0256 102.3744A51.2 51.2 0 0 1 153.6 460.8z m0 307.2a51.2 51.2 0 1 1 0.0256 102.3744A51.2 51.2 0 0 1 153.6 768zM896 179.2H332.8a25.6 25.6 0 0 0 0 51.2h563.2a25.6 25.6 0 0 0 0-51.2z m0 307.2H332.8a25.6 25.6 0 0 0 0 51.2h563.2a25.6 25.6 0 0 0 0-51.2z m0 307.2H332.8a25.6 25.6 0 0 0 0 51.2h563.2a25.6 25.6 0 0 0 0-51.2z" /></svg>