<?xml version="1.0" standalone="no"?><!DOCTYPE svg PUBLIC "-//W3C//DTD SVG 1.1//EN" "http://www.w3.org/Graphics/SVG/1.1/DTD/svg11.dtd"><svg class="icon" width="200px" height="200.00px" viewBox="0 0 1024 1024" version="1.1" xmlns="http://www.w3.org/2000/svg"><path fill="#8a8a8a" d="M893.44 360.106667c-44.373333-81.066667-129.706667-131.413333-221.866667-131.413334H370.346667c-67.413333 0-131.413333 26.453333-179.2 74.24s-74.24 110.933333-74.24 179.2 26.453333 131.413333 74.24 179.2 110.933333 74.24 179.2 74.24h291.84V785.066667c0 16.213333 11.093333 22.186667 24.746666 13.653333l122.026667-79.36c13.653333-8.533333 13.653333-23.04 0-31.573333l-122.026667-75.093334c-13.653333-8.533333-24.746667-2.56-24.746666 13.653334v50.346666H370.346667c-108.373333 0-196.266667-87.893333-196.266667-196.266666s87.893333-196.266667 196.266667-196.266667h301.226666c71.68 0 137.386667 39.253333 171.52 101.546667 7.68 13.653333 24.746667 18.773333 38.4 11.093333 14.506667-5.973333 19.626667-23.04 11.946667-36.693333z" /></svg>