<?xml version="1.0" standalone="no"?><!DOCTYPE svg PUBLIC "-//W3C//DTD SVG 1.1//EN" "http://www.w3.org/Graphics/SVG/1.1/DTD/svg11.dtd"><svg class="icon" width="200px" height="200.00px" viewBox="0 0 1024 1024" version="1.1" xmlns="http://www.w3.org/2000/svg"><path fill="#8a8a8a" d="M323.51365 261.449617 798.417777 261.449617 686.6666 374.544395c-7.384178 7.469112-7.384178 19.542078 0 26.989701 3.670599 3.734044 8.487302 5.580089 13.32447 5.580089 4.816702 0 9.633405-1.867534 13.32447-5.580089L857.063455 256.042467c0.127913-0.12689 0.25378-0.25378 0.378623-0.38374l13.146415-13.305027-13.30605-13.465686c-0.01228-0.01228-0.023536-0.024559-0.035816-0.036839L713.316563 83.193771c-7.361665-7.447623-19.308765-7.447623-26.649963 0-7.384178 7.447623-7.384178 19.521612 0 26.968212L798.438243 223.278249 323.51365 223.278249c-141.293003 0-256.233825 116.340705-256.233825 259.331373l0 119.480208c0 10.546194 8.423857 19.076474 18.863626 19.076474 10.396791 0 18.842137-8.53028 18.842137-19.076474L104.985588 482.609623C104.985588 360.64585 203.014228 261.449617 323.51365 261.449617zM939.250292 403.146826c-10.396791 0-18.841114 8.550747-18.841114 19.075451l0 119.501698c0 121.942283-98.029664 221.160006-218.549551 221.160006L226.9555 762.883981l111.772666-113.116267c7.384178-7.446599 7.384178-19.520589 0-26.968212-7.341199-7.469112-19.287275-7.469112-26.649963 0L168.235121 768.367879c-0.068562 0.067538-0.1361 0.137123-0.203638 0.205685l-13.225209 13.384845 13.234419 13.395078c0.061398 0.063445 0.122797 0.124843 0.185218 0.187265l143.851269 145.587819c3.692089 3.734044 8.508791 5.601578 13.32447 5.601578 4.838192 0 9.654894-1.866511 13.325493-5.601578 7.384178-7.469112 7.384178-19.520589 0-26.989701L226.956523 801.033859l474.903104 0c141.314493 0 256.254292-116.319216 256.254292-259.309884l0-119.501698C958.113919 411.697573 949.669596 403.146826 939.250292 403.146826z" /></svg>