<?xml version="1.0" standalone="no"?><!DOCTYPE svg PUBLIC "-//W3C//DTD SVG 1.1//EN" "http://www.w3.org/Graphics/SVG/1.1/DTD/svg11.dtd"><svg class="icon" width="200px" height="200.00px" viewBox="0 0 1024 1024" version="1.1" xmlns="http://www.w3.org/2000/svg"><path fill="#8a8a8a" d="M720.202 91.584c0-11.039-8.94-19.989-19.989-19.989H506.49c-70.372 0-127.625 57.244-127.625 127.606V631.25c-37.091-48.987-95.864-80.698-161.904-80.698-111.912 0-202.975 91.044-202.975 202.955 0 111.912 91.063 202.956 202.975 202.956s202.975-91.044 202.975-202.956c0-16.095-1.893-31.755-5.452-46.778a19.895 19.895 0 0 0 4.359-12.446V199.201c0-48.313 39.314-87.628 87.647-87.628h193.723c11.049 0 19.989-8.95 19.989-19.989z m-503.241 824.9c-89.873 0-162.997-73.104-162.997-162.978 0-89.872 73.124-162.977 162.997-162.977s162.997 73.104 162.997 162.977c0 89.874-73.125 162.978-162.997 162.978z"  /><path fill="#8a8a8a" d="M584.924 301.45c0 11.039 8.941 19.989 19.989 19.989h378.934c11.049 0 19.989-8.95 19.989-19.989s-8.94-19.989-19.989-19.989H604.913c-11.048-0.001-19.989 8.95-19.989 19.989zM983.847 475.222H604.913c-11.048 0-19.989 8.95-19.989 19.989s8.941 19.989 19.989 19.989h378.934c11.049 0 19.989-8.95 19.989-19.989s-8.94-19.989-19.989-19.989zM983.847 679.739H604.913c-11.048 0-19.989 8.94-19.989 19.989 0 11.048 8.941 19.988 19.989 19.988h378.934c11.049 0 19.989-8.94 19.989-19.988s-8.94-19.989-19.989-19.989z"  /></svg>